<?xml version="1.0" encoding="utf-8"?>
<!-- Generator: Adobe Illustrator 19.2.1, SVG Export Plug-In . SVG Version: 6.00 Build 0)  -->
<svg version="1.1" id="Слой_1" xmlns="http://www.w3.org/2000/svg" xmlns:xlink="http://www.w3.org/1999/xlink" x="0px" y="0px"
	 viewBox="0 0 27.5 14.7" style="enable-background:new 0 0 27.5 14.7;" xml:space="preserve">
<style type="text/css">
	.st0{fill:#3B4249;}
	.st1{fill:#C6C6C6;}
</style>
<g>
	<g>
		<path class="st0" d="M1,5.6L1,5.6c0.2-0.2,0.3-0.5,0.5-0.7L3,2.8h1.2L2.1,5.3l2.3,3.5H3.3L1.5,6L1,6.6v2.3H0V0h1V5.6z"/>
		<path class="st0" d="M8.3,8.8L8.2,8.1h0C7.9,8.6,7.3,9,6.6,9C5.5,9,4.9,8.1,4.9,7.2C4.9,5.8,6.1,5,8.1,5V4.9
			c0-0.5-0.1-1.4-1.2-1.4c-0.5,0-1,0.2-1.4,0.4L5.3,3.2c0.4-0.3,1.1-0.5,1.7-0.5c1.6,0,2,1.3,2,2.5v2.3c0,0.5,0,1,0.1,1.4H8.3z
			 M8.2,5.8C7.1,5.7,5.9,6,5.9,7.1c0,0.7,0.4,1,0.9,1c0.7,0,1.1-0.5,1.3-1c0-0.1,0.1-0.2,0.1-0.3V5.8z"/>
		<path class="st0" d="M10.7,4.8c0-0.8,0-1.4,0-2h0.9l0,1h0c0.4-0.7,1-1.2,1.9-1.2c1.3,0,2.3,1.2,2.3,3.1c0,2.2-1.2,3.2-2.4,3.2
			C12.6,9,12,8.6,11.6,8h0v3.3h-1V4.8z M11.6,6.4c0,0.2,0,0.3,0,0.4c0.2,0.8,0.8,1.3,1.5,1.3c1,0,1.6-0.9,1.6-2.3
			c0-1.2-0.6-2.2-1.6-2.2c-0.7,0-1.3,0.5-1.5,1.4c0,0.1-0.1,0.3-0.1,0.4V6.4z"/>
		<path class="st0" d="M16.9,4.8c0-0.8,0-1.4,0-2h0.9l0,1h0c0.4-0.7,1-1.2,1.9-1.2C21,2.7,22,3.9,22,5.7C22,7.9,20.8,9,19.5,9
			c-0.7,0-1.3-0.3-1.6-0.9h0v3.3h-1V4.8z M17.9,6.4c0,0.2,0,0.3,0,0.4c0.2,0.8,0.8,1.3,1.5,1.3c1,0,1.6-0.9,1.6-2.3
			c0-1.2-0.6-2.2-1.6-2.2c-0.7,0-1.3,0.5-1.5,1.4c0,0.1-0.1,0.3-0.1,0.4V6.4z"/>
		<path class="st0" d="M23.7,6c0,1.5,0.9,2.1,1.8,2.1c0.7,0,1.1-0.1,1.5-0.3l0.2,0.8C26.8,8.8,26.3,9,25.4,9c-1.6,0-2.6-1.2-2.6-3
			s0.9-3.2,2.5-3.2c1.7,0,2.2,1.7,2.2,2.8c0,0.2,0,0.4,0,0.5H23.7z M26.6,5.2c0-0.7-0.3-1.8-1.3-1.8c-1,0-1.4,1-1.5,1.8H26.6z"/>
	</g>
</g>
<g>
	<g>
		<path class="st1" d="M12.6,14.5H8.1v0.2H7.9v-0.2H7.9c-0.2,0-0.4,0-0.5-0.2c-0.1-0.1-0.1-0.2-0.1-0.4c0-0.1,0-0.2,0-0.2l0.2,0
			c0,0,0,0.1,0,0.2c0,0.2,0.2,0.3,0.4,0.3h0.1v-0.4h0.2v0.4h4.4V14.5z"/>
		<path class="st1" d="M8.7,12.4c0.5,0,0.8,0.4,0.8,0.7c0,0.4-0.3,0.7-0.7,0.7c-0.5,0-0.8-0.3-0.8-0.7C7.9,12.7,8.2,12.4,8.7,12.4z
			 M8.7,13.5c0.3,0,0.6-0.2,0.6-0.4c0-0.3-0.2-0.4-0.6-0.4c-0.2,0-0.6,0.1-0.6,0.4S8.4,13.5,8.7,13.5z"/>
		<path class="st1" d="M8.4,12.1c-0.2,0-0.3,0-0.5,0v-0.2l0.3,0v0c-0.2-0.1-0.3-0.2-0.3-0.4c0,0,0-0.1,0-0.1h0.2c0,0,0,0.1,0,0.1
			c0,0.2,0.1,0.3,0.3,0.4c0,0,0.1,0,0.1,0h0.8v0.3H8.4z"/>
	</g>
</g>
<g>
	<g>
		<path class="st1" d="M13.1,14.4c-0.1,0-0.3,0.1-0.5,0.1c-0.6,0-0.9-0.4-0.9-1c0-0.6,0.4-1,1-1c0.2,0,0.4,0.1,0.5,0.1L13,12.9
			c-0.1,0-0.2-0.1-0.4-0.1c-0.4,0-0.6,0.3-0.6,0.7c0,0.4,0.3,0.7,0.6,0.7c0.2,0,0.3-0.1,0.4-0.1L13.1,14.4z"/>
		<path class="st1" d="M13.4,13.1c0-0.2,0-0.4,0-0.6h0.3l0,0.4h0c0.1-0.3,0.3-0.4,0.5-0.4c0,0,0.1,0,0.1,0v0.3c0,0-0.1,0-0.1,0
			c-0.2,0-0.4,0.2-0.4,0.5c0,0,0,0.1,0,0.2v1h-0.3V13.1z"/>
		<path class="st1" d="M14.8,13.6c0,0.5,0.3,0.7,0.6,0.7c0.2,0,0.4,0,0.5-0.1l0.1,0.3c-0.1,0.1-0.3,0.1-0.6,0.1
			c-0.6,0-0.9-0.4-0.9-1s0.3-1,0.9-1c0.6,0,0.8,0.6,0.8,0.9c0,0.1,0,0.1,0,0.2H14.8z M15.8,13.3c0-0.2-0.1-0.6-0.5-0.6
			c-0.3,0-0.5,0.3-0.5,0.6H15.8z"/>
		<path class="st1" d="M17.6,14.5l0-0.2h0c-0.1,0.2-0.3,0.3-0.6,0.3c-0.4,0-0.6-0.3-0.6-0.6c0-0.5,0.4-0.7,1.1-0.7v0
			c0-0.2,0-0.4-0.4-0.4c-0.2,0-0.3,0.1-0.5,0.1l-0.1-0.2c0.2-0.1,0.4-0.2,0.6-0.2c0.6,0,0.7,0.4,0.7,0.8V14c0,0.2,0,0.3,0,0.5H17.6z
			 M17.5,13.5c-0.4,0-0.8,0.1-0.8,0.4c0,0.2,0.1,0.3,0.3,0.3c0.2,0,0.4-0.2,0.4-0.3c0,0,0-0.1,0-0.1V13.5z"/>
		<path class="st1" d="M18.8,12v0.6h0.5v0.3h-0.5v1c0,0.2,0.1,0.4,0.2,0.4c0.1,0,0.2,0,0.2,0l0,0.3c-0.1,0-0.2,0-0.3,0
			c-0.2,0-0.3-0.1-0.4-0.1c-0.1-0.1-0.1-0.3-0.1-0.5v-1.1h-0.3v-0.3h0.3v-0.5L18.8,12z"/>
		<path class="st1" d="M20,12c0,0.1-0.1,0.2-0.2,0.2c-0.1,0-0.2-0.1-0.2-0.2c0-0.1,0.1-0.2,0.2-0.2C19.9,11.8,20,11.9,20,12z
			 M19.6,14.5v-1.9h0.3v1.9H19.6z"/>
		<path class="st1" d="M20.6,12.5l0.4,1.1c0.1,0.2,0.1,0.3,0.1,0.5h0c0-0.2,0.1-0.3,0.2-0.5l0.4-1.1H22l-0.7,1.9H21l-0.7-1.9H20.6z"
			/>
		<path class="st1" d="M22.5,13.6c0,0.5,0.3,0.7,0.6,0.7c0.2,0,0.4,0,0.5-0.1l0.1,0.3c-0.1,0.1-0.3,0.1-0.6,0.1
			c-0.6,0-0.9-0.4-0.9-1s0.3-1,0.9-1c0.6,0,0.8,0.6,0.8,0.9c0,0.1,0,0.1,0,0.2H22.5z M23.4,13.3c0-0.2-0.1-0.6-0.5-0.6
			c-0.3,0-0.5,0.3-0.5,0.6H23.4z"/>
		<path class="st1" d="M24.1,14.1c0.1,0.1,0.3,0.1,0.4,0.1c0.2,0,0.4-0.1,0.4-0.3c0-0.2-0.1-0.3-0.3-0.4c-0.3-0.1-0.5-0.3-0.5-0.5
			c0-0.3,0.2-0.6,0.6-0.6c0.2,0,0.3,0.1,0.5,0.1l-0.1,0.3c-0.1,0-0.2-0.1-0.4-0.1c-0.2,0-0.3,0.1-0.3,0.3c0,0.2,0.1,0.2,0.3,0.3
			c0.3,0.1,0.5,0.3,0.5,0.6c0,0.3-0.3,0.6-0.7,0.6c-0.2,0-0.4-0.1-0.5-0.1L24.1,14.1z"/>
	</g>
</g>
</svg>
